<?xml version="1.0" standalone="no"?>
<!DOCTYPE svg PUBLIC "-//W3C//DTD SVG 20010904//EN"
 "http://www.w3.org/TR/2001/REC-SVG-20010904/DTD/svg10.dtd">
<svg version="1.0" xmlns="http://www.w3.org/2000/svg"
 width="225.000000pt" height="225.000000pt" viewBox="0 0 225.000000 225.000000"
 preserveAspectRatio="xMidYMid meet">
<metadata>
Created by potrace 1.16, written by Peter Selinger 2001-2019
</metadata>
<g transform="translate(0.000000,225.000000) scale(0.100000,-0.100000)"
fill="#000000" stroke="none">
<path d="M295 1351 c-47 -20 -63 -75 -31 -110 10 -11 37 -24 60 -30 49 -12 69
-31 60 -55 -10 -25 -52 -31 -91 -12 -34 16 -53 14 -53 -5 0 -18 73 -41 113
-36 51 7 67 23 67 67 0 45 -11 55 -78 75 -27 8 -53 22 -56 31 -14 37 40 57 85
33 15 -8 24 -7 35 2 12 10 12 14 -4 25 -25 17 -83 25 -107 15z"/>
<path d="M480 1195 c0 -88 2 -95 20 -95 17 0 19 8 22 71 2 55 7 74 21 83 12 8
22 8 35 0 13 -9 18 -28 20 -83 3 -63 5 -71 22 -71 18 0 20 7 20 64 0 69 14 96
50 96 28 0 40 -30 40 -99 0 -54 2 -61 20 -61 18 0 20 7 20 68 0 86 -15 116
-58 120 -19 2 -44 -4 -57 -12 -20 -13 -25 -13 -35 -1 -16 20 -65 19 -84 -1
-15 -14 -16 -14 -16 0 0 9 -8 16 -20 16 -19 0 -20 -7 -20 -95z"/>
<path d="M843 1282 c-21 -13 1 -28 41 -27 28 0 42 -6 53 -22 14 -21 13 -21
-37 -20 -43 2 -55 -2 -71 -22 -24 -30 -24 -46 2 -72 21 -21 59 -23 103 -4 14
6 17 5 12 -3 -5 -8 0 -12 13 -12 19 0 21 6 21 75 0 92 -16 115 -82 115 -24 0
-48 -4 -55 -8z"/>
<path d="M152 1034 c-24 -17 -30 -62 -10 -82 8 -8 3 -18 -20 -41 -38 -35 -40
-63 -7 -96 29 -30 68 -32 112 -6 31 19 31 19 48 1 10 -11 22 -17 27 -14 5 3 0
16 -12 29 -20 21 -20 23 -3 53 10 17 14 34 9 39 -5 4 -11 3 -13 -3 -2 -6 -10
-20 -18 -30 -13 -18 -15 -18 -44 10 l-31 29 30 19 c22 13 30 25 30 47 0 31
-30 61 -60 61 -9 0 -26 -7 -38 -16z"/>
<path d="M370 914 l0 -127 81 6 c57 4 86 10 100 23 26 24 25 69 -4 90 -22 17
-22 19 -5 36 24 24 23 53 -2 78 -16 16 -33 20 -95 20 l-75 0 0 -126z"/>
<path d="M631 956 c-52 -55 -27 -148 44 -162 35 -6 95 10 95 27 0 15 -22 21
-33 10 -18 -18 -62 -13 -82 9 -28 31 -8 42 64 38 60 -3 61 -3 61 23 0 15 -9
38 -21 53 -28 36 -95 37 -128 2z"/>
<path d="M1001 885 c22 -52 37 -100 34 -105 -3 -6 -17 -10 -30 -10 -32 0 -40
-27 -10 -33 39 -7 66 14 87 68 67 171 68 175 49 175 -12 0 -24 -14 -34 -42 -9
-24 -21 -56 -28 -73 l-11 -30 -27 70 c-21 54 -32 71 -49 73 -20 3 -19 -1 19
-93z"/>
</g>
</svg>
